<svg width="202" height="200" viewBox="0 0 202 200" fill="none" xmlns="http://www.w3.org/2000/svg">
<path d="M1 194.815L1.09599 114.947L34.8374 106.806V64.3706L60.3234 58.003V29.1215L98.4324 17.387" stroke="white" stroke-width="1.2" stroke-miterlimit="10"/>
<path d="M98.4352 48.4971L60.3262 58.003" stroke="white" stroke-width="1.2" stroke-miterlimit="10"/>
<path d="M97.089 94.2074L34.8379 106.806" stroke="white" stroke-width="1.2" stroke-miterlimit="10"/>
<path d="M103.377 17.5236L137.742 27.7572" stroke="white" stroke-width="1.2" stroke-miterlimit="10"/>
<path d="M137.743 53.8188V29.5765" stroke="white" stroke-width="1.2" stroke-miterlimit="10"/>
<path d="M102.801 48.0876L163.564 62.5511" stroke="white" stroke-width="1.2" stroke-miterlimit="10"/>
<path d="M164.092 105.032V64.8712" stroke="white" stroke-width="1.2" stroke-miterlimit="10"/>
<path d="M201 117.995V200" stroke="white" stroke-miterlimit="10"/>
<path d="M100.5 16.9323V45.4499" stroke="white" stroke-width="1.2" stroke-miterlimit="10"/>
<path d="M100.5 47.86V90.7957" stroke="white" stroke-width="1.2" stroke-miterlimit="10"/>
<path d="M100.5 93.7069V190.176" stroke="white" stroke-width="1.2" stroke-miterlimit="10"/>
<path d="M92.1468 103.44L10.0732 121.27" stroke="white" stroke-miterlimit="10"/>
<path d="M107.601 103.759L192.122 121.542" stroke="white" stroke-miterlimit="10"/>
<path d="M199.419 114.948L103.475 94.2074" stroke="white" stroke-width="1.2" stroke-miterlimit="10"/>
<path d="M192.122 183.126L192.458 132.913L164.428 126.909" stroke="white" stroke-miterlimit="10"/>
<path d="M42.7109 118.495L76.2123 111.354" stroke="white" stroke-miterlimit="10"/>
<path d="M39.9718 97.7551V83.0642C39.6838 70.8294 54.8507 67.6001 55.1866 78.9253V95.2991" stroke="white" stroke-width="1.4" stroke-miterlimit="10"/>
<path d="M59.3624 93.5705V78.8341C59.0745 66.5993 74.2413 63.37 74.5773 74.6952V91.069" stroke="white" stroke-width="1.2" stroke-miterlimit="10"/>
<path d="M78.5158 89.3407V74.6498C78.2278 62.4149 93.3946 59.1857 93.7306 70.5109V86.8846" stroke="white" stroke-width="1.2" stroke-miterlimit="10"/>
<path d="M159.293 100.529V82.5634C159.293 70.556 146.142 69.6008 146.142 78.3335" stroke="white" stroke-width="1.2" stroke-miterlimit="10"/>
<path d="M122.717 92.4336V74.1495C122.717 60.8231 109.038 60.5047 108.846 69.9197" stroke="white" stroke-width="1.2" stroke-miterlimit="10"/>
<path d="M141.199 96.2992V78.3336C141.199 64.6888 127.856 65.6894 127.712 72.4663" stroke="white" stroke-width="1.2" stroke-miterlimit="10"/>
<path d="M92.1458 24.1638L80.1947 27.666L63.54 32.6236" stroke="white" stroke-width="1.2" stroke-miterlimit="10"/>
<path d="M128.527 31.0771L134.335 32.7145V48.3606" stroke="white" stroke-width="1.2" stroke-miterlimit="10"/>
<path d="M77.6025 50.9533V37.8997L80.9623 36.9446" stroke="white" stroke-width="1.2" stroke-miterlimit="10"/>
<path d="M80.9619 39.719V49.9071" stroke="white" stroke-width="1.2" stroke-miterlimit="10"/>
<path d="M114.321 28.4393L130.592 33.2605" stroke="white" stroke-width="1.2" stroke-miterlimit="10"/>
<path d="M92.7695 112.992V179.26" stroke="white" stroke-miterlimit="10"/>
<path d="M75.9238 164.342C78.7556 155.654 82.7873 150.378 87.6829 147.604C83.0753 153.198 81.7794 160.203 78.2276 167.253" fill="#FDFEFE"/>
<path d="M75.9238 164.342C78.7556 155.654 82.7873 150.378 87.6829 147.604C83.0753 153.198 81.7794 160.203 78.2276 167.253" stroke="#E6F5F3" stroke-miterlimit="10"/>
<path d="M81.8237 172.119C81.7277 169.254 83.1676 165.433 91.231 157.383C87.1993 163.796 87.7272 168.663 83.3596 174.712" fill="#E6F5F3"/>
<path d="M81.8237 172.119C81.7277 169.254 83.1676 165.433 91.231 157.383C87.1993 163.796 87.7272 168.663 83.3596 174.712" stroke="white" stroke-miterlimit="10"/>
<path d="M65.9398 152.471C54.2767 143.601 44.8214 139.372 36.998 138.553C46.7413 144.284 58.8843 150.742 66.7077 153.835" fill="#E6F5F3"/>
<path d="M65.9398 152.471C54.2767 143.601 44.8214 139.372 36.998 138.553C46.7413 144.284 58.8843 150.742 66.7077 153.835" stroke="white" stroke-miterlimit="10"/>
<path d="M69.3487 157.383C64.4051 157.746 55.4298 150.242 41.4629 153.607C47.9904 147.058 62.1013 150.924 68.8688 156.518" fill="#E6F5F3"/>
<path d="M69.3487 157.383C64.4051 157.746 55.4298 150.242 41.4629 153.607C47.9904 147.058 62.1013 150.924 68.8688 156.518" stroke="white" stroke-miterlimit="10"/>
<path d="M72.992 162.204C71.0722 163.114 56.9613 158.975 48.418 161.158C54.1295 158.52 59.4091 155.382 71.7921 160.521" fill="#E6F5F3"/>
<path d="M72.992 162.204C71.0722 163.114 56.9613 158.975 48.418 161.158C54.1295 158.52 59.4091 155.382 71.7921 160.521" stroke="white" stroke-miterlimit="10"/>
<path d="M77.2157 168.526C69.0083 169.891 60.849 166.753 52.6416 168.936C57.5852 166.025 63.2968 163.705 75.2478 166.07" fill="#FDFEFE"/>
<path d="M77.2157 168.526C69.0083 169.891 60.849 166.753 52.6416 168.936C57.5852 166.025 63.2968 163.705 75.2478 166.07" stroke="#E6F5F3" stroke-miterlimit="10"/>
<path d="M81.8264 176.349C74.9629 177.395 68.5314 174.757 60.3721 176.349C66.9956 173.574 74.435 171.118 81.0585 175.484" fill="#FDFEFE"/>
<path d="M81.8264 176.349C74.9629 177.395 68.5314 174.757 60.3721 176.349C66.9956 173.574 74.435 171.118 81.0585 175.484" stroke="#E6F5F3" stroke-miterlimit="10"/>
<path d="M62.1025 147.104C71.5098 160.021 82.309 177.077 92.8201 195.634C93.5401 195.952 94.212 195.816 94.884 194.678C86.5806 175.94 67.9101 152.971 62.1025 147.104Z" fill="#E6F5F3" stroke="white" stroke-miterlimit="10"/>
<path d="M62.1003 147.104C57.8286 138.826 48.8053 127.91 32.3906 122.816C42.6138 129.866 52.5011 138.098 62.1003 147.104Z" fill="#E6F5F3" stroke="white" stroke-miterlimit="10"/>
<path d="M64.9324 150.242C60.9007 139.371 58.7889 129.047 60.3247 120.86C63.0125 132.503 65.9403 143.192 65.9403 151.197" fill="#E6F5F3"/>
<path d="M64.9324 150.242C60.9007 139.371 58.7889 129.047 60.3247 120.86C63.0125 132.503 65.9403 143.192 65.9403 151.197" stroke="white" stroke-miterlimit="10"/>
<path d="M68.5318 154.608C68.0038 148.786 67.5238 137.37 77.747 131.048C69.8277 140.281 71.3635 153.38 70.0676 156.519" fill="#E6F5F3"/>
<path d="M68.5318 154.608C68.0038 148.786 67.5238 137.37 77.747 131.048C69.8277 140.281 71.3635 153.38 70.0676 156.519" stroke="white" stroke-miterlimit="10"/>
<path d="M71.8408 158.747C72.7527 150.788 76.4485 144.102 82.592 140.781C75.9205 149.741 74.4806 159.065 73.6167 161.158" fill="#E6F5F3"/>
<path d="M71.8408 158.747C72.7527 150.788 76.4485 144.102 82.592 140.781C75.9205 149.741 74.4806 159.065 73.6167 161.158" stroke="white" stroke-miterlimit="10"/>
<path d="M122.046 165.524C119.263 156.746 115.327 151.379 110.527 148.605C115.039 154.244 116.287 161.385 119.791 168.481" fill="#FDFEFE"/>
<path d="M122.046 165.524C119.263 156.746 115.327 151.379 110.527 148.605C115.039 154.244 116.287 161.385 119.791 168.481" stroke="#E6F5F3" stroke-miterlimit="10"/>
<path d="M116.289 173.393C116.385 170.527 114.993 166.661 107.122 158.52C111.058 165.024 110.53 169.936 114.801 176.076" fill="#FDFEFE"/>
<path d="M116.289 173.393C116.385 170.527 114.993 166.661 107.122 158.52C111.058 165.024 110.53 169.936 114.801 176.076" stroke="#E6F5F3" stroke-miterlimit="10"/>
<path d="M131.788 153.562C143.164 144.602 152.427 140.327 160.058 139.508C150.507 145.284 138.652 151.834 131.021 154.972" fill="#E6F5F3"/>
<path d="M131.788 153.562C143.164 144.602 152.427 140.327 160.058 139.508C150.507 145.284 138.652 151.834 131.021 154.972" stroke="white" stroke-miterlimit="10"/>
<path d="M128.481 158.519C133.329 158.883 142.064 151.288 155.743 154.699C149.36 148.058 135.585 152.015 128.961 157.655" fill="#E6F5F3"/>
<path d="M128.481 158.519C133.329 158.883 142.064 151.288 155.743 154.699C149.36 148.058 135.585 152.015 128.961 157.655" stroke="white" stroke-miterlimit="10"/>
<path d="M124.929 163.387C126.801 164.296 140.575 160.112 148.927 162.341C143.359 159.657 138.176 156.473 126.081 161.704" fill="#E6F5F3"/>
<path d="M124.929 163.387C126.801 164.296 140.575 160.112 148.927 162.341C143.359 159.657 138.176 156.473 126.081 161.704" stroke="white" stroke-miterlimit="10"/>
<path d="M120.8 169.799C128.815 171.164 136.831 167.98 144.846 170.209C139.998 167.298 134.431 164.933 122.72 167.343" fill="#FDFEFE"/>
<path d="M120.8 169.799C128.815 171.164 136.831 167.98 144.846 170.209C139.998 167.298 134.431 164.933 122.72 167.343" stroke="#E6F5F3" stroke-miterlimit="10"/>
<path d="M116.289 177.668C123.009 178.714 129.296 176.076 137.263 177.668C130.784 174.848 123.536 172.392 117.009 176.803" fill="#FDFEFE"/>
<path d="M116.289 177.668C123.009 178.714 129.296 176.076 137.263 177.668C130.784 174.848 123.536 172.392 117.009 176.803" stroke="#E6F5F3" stroke-miterlimit="10"/>
<path d="M135.582 148.104C126.414 161.203 116.863 177.44 106.592 196.225C105.872 196.543 105.2 196.407 104.576 195.224C112.64 176.303 129.918 154.017 135.582 148.104Z" fill="#E6F5F3" stroke="white" stroke-miterlimit="10"/>
<path d="M135.582 148.104C139.758 139.735 148.589 128.729 164.62 123.544C154.589 130.684 144.941 138.962 135.582 148.104Z" fill="#E6F5F3" stroke="white" stroke-miterlimit="10"/>
<path d="M132.797 151.288C136.781 140.327 138.797 129.866 137.309 121.588C134.669 133.368 131.789 144.148 131.789 152.289" fill="#E6F5F3"/>
<path d="M132.797 151.288C136.781 140.327 138.797 129.866 137.309 121.588C134.669 133.368 131.789 144.148 131.789 152.289" stroke="white" stroke-miterlimit="10"/>
<path d="M129.299 155.7C129.779 149.787 130.307 138.28 120.275 131.913C128.051 141.237 126.515 154.472 127.763 157.701" fill="#E6F5F3"/>
<path d="M129.299 155.7C129.779 149.787 130.307 138.28 120.275 131.913C128.051 141.237 126.515 154.472 127.763 157.701" stroke="white" stroke-miterlimit="10"/>
<path d="M126.032 159.884C125.12 151.834 121.568 145.102 115.521 141.737C122.048 150.833 123.44 160.203 124.304 162.34" fill="#E6F5F3"/>
<path d="M126.032 159.884C125.12 151.834 121.568 145.102 115.521 141.737C122.048 150.833 123.44 160.203 124.304 162.34" stroke="white" stroke-miterlimit="10"/>
<path d="M103.251 7.23665C104.588 5.70883 104.397 3.46962 102.826 2.23521C101.254 1.00081 98.8969 1.23867 97.5605 2.76648C96.224 4.2943 96.4145 6.53352 97.986 7.76792C99.5574 9.00232 101.915 8.76446 103.251 7.23665Z" fill="white" stroke="white" stroke-width="1.2" stroke-miterlimit="10"/>
<path d="M100.5 15.2948V8.33594" stroke="white" stroke-width="1.2" stroke-miterlimit="10"/>
<path d="M95.8398 17.4325V11.5652L100.495 8.33594L105.295 11.4742V17.3415" stroke="white" stroke-width="1.2" stroke-miterlimit="10"/>
</svg>
