<svg width="38" height="39" viewBox="0 0 38 39" fill="none" xmlns="http://www.w3.org/2000/svg">
<path d="M7.91667 19.5H4.75L19 4.875L33.25 19.5H30.0833M7.91667 19.5V30.875C7.91667 31.737 8.2503 32.5636 8.84416 33.1731C9.43803 33.7826 10.2435 34.125 11.0833 34.125H26.9167C27.7565 34.125 28.562 33.7826 29.1558 33.1731C29.7497 32.5636 30.0833 31.737 30.0833 30.875V19.5" stroke="#0B7E8B" stroke-width="2" stroke-linecap="round" stroke-linejoin="round"/>
<path d="M14.25 34.125V24.375C14.25 23.513 14.5836 22.6864 15.1775 22.0769C15.7714 21.4674 16.5768 21.125 17.4167 21.125H20.5833C21.4232 21.125 22.2286 21.4674 22.8225 22.0769C23.4164 22.6864 23.75 23.513 23.75 24.375V34.125" stroke="#0B7E8B" stroke-width="2" stroke-linecap="round" stroke-linejoin="round"/>
</svg>
